PathFileType	4	(X/Y/Z)	/Users/niels/Desktop/University/Third Semester/Perception and Action/Exam/Gymnastics Motion Tracking/Code for Gym Tracking/Analyzed Data/Webcam_Backflip/id2002_2_baseline_Sports2D/id2002_2_baseline_Sports2D_px_person00.trc
DataRate	CameraRate	NumFrames	NumMarkers	Units	OrigDataRate	OrigDataStartFrame	OrigNumFrames
29.798657718120804	29.798657718120804	9	22	m	29.798657718120804	111	149
Frame#	Time	Hip			RHip			RKnee			RAnkle			RBigToe			RSmallToe			RHeel			LHip			LKnee			LAnkle			LBigToe			LSmallToe			LHeel			Neck			Head			Nose			RShoulder			RElbow			RWrist			LShoulder			LElbow			LWrist		
		X1	Y1	Z1	X2	Y2	Z2	X3	Y3	Z3	X4	Y4	Z4	X5	Y5	Z5	X6	Y6	Z6	X7	Y7	Z7	X8	Y8	Z8	X9	Y9	Z9	X10	Y10	Z10	X11	Y11	Z11	X12	Y12	Z12	X13	Y13	Z13	X14	Y14	Z14	X15	Y15	Z15	X16	Y16	Z16	X17	Y17	Z17	X18	Y18	Z18	X19	Y19	Z19	X20	Y20	Z20	X21	Y21	Z21	X22	Y22	Z22
111	3.7250000000000005	1.0383765007641286	-0.6980760529047288	0.0	0.9898238375197732	-0.7068194463125067	0.0	0.9848362662402466	-1.039541976415229	0.0	0.9656630008619729	-1.0862251966944094	0.0			0.0			0.0			0.0	1.0853615114564248	-0.7115661991980845	0.0	1.0520722605696868	-1.0372642426563747	0.0	1.0338523559636497	-1.0797076167596367	0.0			0.0			0.0			0.0	1.0796921304047116	-0.23274624170148134	0.0	1.2045903880785684	-0.053994388815919	0.0	1.1981431465646732	-0.1827497040807791	0.0	0.9786525757980279	-0.26567370330993817	0.0	0.9190546770723491	-0.4996039402446963	0.0	0.9920662987022434	-0.7372272660701806	0.0	1.1158690704967806	-0.3077144468475772	0.0	1.161504070885367	-0.5262508951902218	0.0	1.1870871065764486	-0.365287605330921	0.0
112	3.7585585585585592	1.0348267875029535	-0.6995927459324187	0.0	0.9874420272585706	-0.7074692418541156	0.0	0.9854836209097583	-1.040821072431817	0.0	0.9658105808482861	-1.0871089502157822	0.0			0.0			0.0			0.0	1.0823699632920392	-0.7115565424429336	0.0	1.0506923515730597	-1.0378816586898707	0.0	1.0321607121535112	-1.0803907539138131	0.0			0.0			0.0			0.0	1.0799273326508119	-0.233756506274734	0.0	1.2091806481454506	-0.05677116491360827	0.0	1.2002149271419524	-0.18636696372166567	0.0	0.9818419683166292	-0.2660474637797722	0.0	0.923129065300582	-0.4989136583754119	0.0	0.9991979757876047	-0.7371024152281969	0.0	1.1124363295638358	-0.30697937197041647	0.0	1.1570403973427537	-0.5247875462368621	0.0	1.1859068114512208	-0.368255651816562	0.0
113	3.7921171171171175	1.030561781540241	-0.7014942967660284	0.0	0.9847711168661103	-0.7083853022503804	0.0	0.9865001038592561	-1.042012056720727	0.0	0.9663941345897197	-1.0872829296536555	0.0			0.0			0.0			0.0	1.0789135840591526	-0.7117593457886993	0.0	1.0491550679486379	-1.0383560825027511	0.0	1.0302185975857714	-1.080558490723393	0.0			0.0			0.0			0.0	1.0803085577152958	-0.23474453612116827	0.0	1.2139517401089372	-0.059908535647161996	0.0	1.2021046176332413	-0.19019472221734518	0.0	0.98518360675346	-0.2664954490132914	0.0	0.9274348057675481	-0.49834709822638557	0.0	1.005836354567236	-0.7372199833924715	0.0	1.1092751964361653	-0.3060808018178974	0.0	1.1530959073234437	-0.522714375588563	0.0	1.1847993417129916	-0.3715147354916812	0.0
114	3.8256756756756762	1.0257183007963426	-0.70348465129614	0.0	0.9821920087494633	-0.709415174482997	0.0	0.987765042526019	-1.042994606298889	0.0	0.9676510920129674	-1.086663472025361	0.0			0.0			0.0			0.0	1.0750581106632209	-0.7121392083965927	0.0	1.047558842642562	-1.0386636020262303	0.0	1.0285251677601943	-1.0801015705334935	0.0			0.0			0.0			0.0	1.0807333686822607	-0.2357387812514607	0.0	1.2187573741810573	-0.06351296285080182	0.0	1.2037470883674346	-0.1942909177566746	0.0	0.9886619377872082	-0.2670245117168308	0.0	0.9319738112378403	-0.4980426788732357	0.0	1.0119655813277613	-0.7375447962001809	0.0	1.1060995869994088	-0.30507353608243964	0.0	1.1496132290263448	-0.5200133466061322	0.0	1.1839628630740935	-0.3747480843921578	0.0
115	3.8592342342342345	1.0206972077261203	-0.7053896162713881	0.0	0.9801257859440631	-0.7104633612601774	0.0	0.9889094744598086	-1.0436457093378921	0.0	0.9695345057392172	-1.08532789153606	0.0			0.0			0.0			0.0	1.0709464632243824	-0.7127219403040328	0.0	1.0458517804780105	-1.038669493319352	0.0	1.0273988815329937	-1.0790615744547132	0.0			0.0			0.0			0.0	1.0811513319052388	-0.23677738346804636	0.0	1.2234760883894278	-0.0675489598858949	0.0	1.2052273508823368	-0.1986337391101739	0.0	0.992312436825888	-0.2675196662216153	0.0	0.9367178216594009	-0.4981414371389972	0.0	1.0176378511229465	-0.7381048615045761	0.0	1.1025566887528826	-0.3040135539914168	0.0	1.1465058808993618	-0.5167720547934421	0.0	1.1833806014286363	-0.3777345053470861	0.0
116	3.892792792792793	1.0160660166274256	-0.7071528928531103	0.0	0.9788423514147189	-0.7115357337844368	0.0	0.989497591361634	-1.044001296867187	0.0	0.9716325128232722	-1.0834603381785637	0.0			0.0			0.0			0.0	1.0668204464048014	-0.7135995344570217	0.0	1.0438118333907174	-1.0383804484329844	0.0	1.0268806425129715	-1.0776075160009693	0.0			0.0			0.0			0.0	1.0815702393733038	-0.23783803763538897	0.0	1.2280041118535068	-0.07176565432908794	0.0	1.2067614736365329	-0.20301934870936	0.0	0.9961794428164493	-0.26777712366275525	0.0	0.9416311716118776	-0.4986515424286496	0.0	1.0229287816447394	-0.7389542679472185	0.0	1.098554361075955	-0.30288029748030015	0.0	1.1436808355581833	-0.5132499015256033	0.0	1.182897409119045	-0.3804859809515932	0.0
117	3.926351351351352	1.0122760587237742	-0.7087262944104045	0.0	0.9783951938008962	-0.712661114710912	0.0	0.9893243834755772	-1.0443147175691327	0.0	0.9735025928223456	-1.0812946692956498	0.0			0.0			0.0			0.0	1.0628472309742674	-0.714811381796149	0.0	1.041119276160739	-1.0381185731149913	0.0	1.026821134714362	-1.0760132316387712	0.0			0.0			0.0			0.0	1.0820004419690334	-0.23883834706669396	0.0	1.2322880178612436	-0.07584557100811298	0.0	1.2085185140298482	-0.20717965265409582	0.0	1.000245253023545	-0.26770968191138556	0.0	0.9466909176597149	-0.49943545904087194	0.0	1.0279160748832243	-0.7400959507636624	0.0	1.0941386446272905	-0.30155722832320037	0.0	1.1409350817851789	-0.5098305442196488	0.0	1.1823184799574364	-0.38313247354633867	0.0
118	3.95990990990991	1.009423868738534	-0.7100890373918206	0.0	0.9786914784335372	-0.7138815202939174	0.0	0.9885827421666534	-1.0449379174209994	0.0	0.9750542899444838	-1.0791319725415753	0.0			0.0			0.0			0.0	1.0589344730366457	-0.7163102899507895	0.0	1.0375673357101727	-1.0383654187158748	0.0	1.0270092571122418	-1.0746846755839377	0.0			0.0			0.0			0.0	1.082435229442259	-0.23970230440717216	0.0	1.2363139571402677	-0.07959104542888724	0.0	1.2104826788613645	-0.21094062399334174	0.0	1.004435785055115	-0.2674409067068482	0.0	0.9518789332553421	-0.5003040312307733	0.0	1.0326863644756015	-0.7414569258685936	0.0	1.0892992009384086	-0.2999162893058911	0.0	1.137894917103739	-0.5068872096686583	0.0	1.1814561122738914	-0.38570696167357466	0.0
119	3.993468468468469	1.0072527024929303	-0.7112948291645753	0.0	0.9795297239441192	-0.7152279505333272	0.0	0.9875957803353691	-1.0461011475126745	0.0	0.9763805413497196	-1.0772998003253988	0.0			0.0			0.0			0.0	1.0548062383423096	-0.7179884733102131	0.0	1.0332996298328245	-1.0394586713039975	0.0	1.0273220067360322	-1.0740383201416592	0.0			0.0			0.0			0.0	1.0828635044990844	-0.24043006612463125	0.0	1.2400662410894754	-0.08296385472588096	0.0	1.2125129568082043	-0.21426541108029593	0.0	1.0087258706011797	-0.2671967322614582	0.0	0.9571394887402899	-0.5010586514561721	0.0	1.0373195264057793	-0.7429269912094437	0.0	1.0841138668590136	-0.2979223213239368	0.0	1.1341259324020123	-0.5046780830332246	0.0	1.180156000492065	-0.3881075824866343	0.0
